<svg width="73" height="44" viewBox="0 0 73 44" fill="none" xmlns="http://www.w3.org/2000/svg">
<path d="M10.4117 34.6811C11.1725 34.1821 11.9376 33.699 12.6892 33.1853C14.0701 32.2477 15.7196 32.5664 16.5492 33.9448C17.3452 35.2755 16.95 36.5337 15.3115 37.4666C13.2142 38.6586 11.0353 39.7023 8.94849 40.9142C7.83096 41.5656 6.90771 42.5906 5.76117 43.1533C4.89327 43.5845 3.6914 43.9406 2.87046 43.61C2.1733 43.3313 1.5507 42.062 1.34913 41.134C0.817905 38.722 0.522391 36.2524 0.164831 33.8052C0.0677472 33.1501 -0.109365 32.3915 0.0927582 31.8378C0.386581 31.0211 0.990949 30.3483 1.45753 29.6103C2.26271 30.3311 3.4714 30.8984 3.79783 31.8043C4.44644 33.6002 4.6051 35.5785 4.99431 37.5972C6.15749 37.3309 6.84168 37.0341 6.22959 35.6087C5.69502 34.3556 5.93565 33.1842 6.75118 32.1085C10.9697 26.5336 14.8186 20.5751 19.4684 15.4579C22.7169 11.8855 26.9596 9.28988 30.9489 6.5691C33.0188 5.15735 35.4133 4.07867 37.8188 3.45114C42.298 2.285 46.509 2.87093 49.2738 7.97679C52.7387 6.16852 56.0741 4.42336 59.4186 2.69278C62.5151 1.09107 65.6577 -0.358356 69.3006 0.0789519C69.4194 0.0925516 69.5544 0.0109448 69.6676 0.0430467C71.0314 0.466657 72.9188 0.61937 72.9326 2.50592C72.9457 4.54592 71.1177 4.4397 69.6767 4.37172C65.6271 4.17392 62.3255 6.27902 58.8879 7.95508C56.6164 9.06325 54.4309 10.3754 52.1284 11.4068C50.9182 11.9467 50.6249 12.7065 50.8469 14.0037C52.0214 20.8469 49.6184 26.3838 45.7214 31.2653C43.9629 33.4678 41.3961 34.411 38.7871 34.9625C36.16 35.5245 34.0812 33.2717 33.717 30.4289C32.7056 22.5543 37.2278 17.9764 41.7668 13.3828C43.0296 12.1021 44.4797 11.0324 45.8678 9.84873C44.8171 7.72348 43.4157 6.82747 41.3519 7.05124C36.9137 7.5309 33.0809 9.48883 29.5224 12.0998C25.0803 15.3563 20.8424 18.8873 17.5587 23.5192C15.0256 27.0873 12.6271 30.7668 10.1724 34.3933C10.2545 34.4848 10.3366 34.5764 10.4187 34.6679L10.4117 34.6811ZM47.3391 14.7733C42.9077 17.1527 35.7519 25.3141 38.1503 31.2391C43.3588 31.3307 48.7448 21.3275 47.3391 14.7733Z" fill="#FFCD29"/>
</svg>
